<?xml version="1.0" encoding="iso-8859-1"?>
<!-- Generator: Adobe Illustrator 19.0.0, SVG Export Plug-In . SVG Version: 6.00 Build 0)  -->
<svg version="1.1" id="Layer_1" xmlns="http://www.w3.org/2000/svg" xmlns:xlink="http://www.w3.org/1999/xlink" x="0px" y="0px"
	 viewBox="0 0 512 512" style="enable-background:new 0 0 512 512;" xml:space="preserve">
<g>
	<g>
		<rect x="71.876" y="368.25" width="160.107" height="15.664"/>
	</g>
</g>
<g>
	<g>
		<rect x="71.876" y="344.232" width="64.045" height="15.664"/>
	</g>
</g>
<g>
	<g>
		<polygon points="171.754,320.217 159.934,337.946 148.115,320.217 71.876,320.217 71.876,335.881 139.733,335.881 
			159.934,366.184 180.137,335.881 231.983,335.881 231.983,320.217 		"/>
	</g>
</g>
<g>
	<g>
		<rect x="183.947" y="344.232" width="48.032" height="15.664"/>
	</g>
</g>
<g>
	<g>
		<path d="M151.929,208.141c-48.461,0-87.886,39.425-87.886,87.886v15.837h175.773v-15.837
			C239.815,247.566,200.39,208.141,151.929,208.141z M224.153,296.201h-0.001H79.708v-0.173c0-39.824,32.398-72.222,72.222-72.222
			s72.222,32.398,72.222,72.222V296.201z"/>
	</g>
</g>
<g>
	<g>
		<rect x="304.205" y="239.993" width="15.664" height="40.027"/>
	</g>
</g>
<g>
	<g>
		<rect x="328.223" y="223.974" width="15.664" height="56.037"/>
	</g>
</g>
<g>
	<g>
		<rect x="352.241" y="215.975" width="15.664" height="88.063"/>
	</g>
</g>
<g>
	<g>
		<rect x="376.259" y="215.975" width="15.664" height="88.063"/>
	</g>
</g>
<g>
	<g>
		<rect x="400.267" y="215.975" width="15.664" height="88.063"/>
	</g>
</g>
<g>
	<g>
		<rect x="424.285" y="223.974" width="15.664" height="56.037"/>
	</g>
</g>
<g>
	<g>
		<rect x="448.303" y="239.993" width="15.664" height="40.027"/>
	</g>
</g>
<g>
	<g>
		<rect x="336.055" y="400.267" width="96.062" height="15.664"/>
	</g>
</g>
<g>
	<g>
		<rect x="376.259" y="175.948" width="15.664" height="24.016"/>
	</g>
</g>
<g>
	<g>
		<path d="M457.159,424.287L471.972,320.6v-32.405h-47.685v7.832c0,8.924-7.26,16.184-16.184,16.184h-48.032
			c-8.924,0-16.184-7.26-16.184-16.184v-7.832h-47.686V320.6l14.813,103.687h-47.181V175.946h-15.664v248.341h-8.353v-32.022H64.044
			v32.022H0v39.68h512v-39.68H457.159z M311.863,303.859h0.001h17.333c3.499,13.787,16.014,24.016,30.874,24.016h48.032
			c14.86,0,27.375-10.229,30.874-24.016h17.332v15.627l-14.972,104.8H326.835l-14.972-104.8V303.859z M79.708,407.93h144.444v16.358
			H79.708V407.93z M496.336,448.303H15.664v-8.352h480.672V448.303z"/>
	</g>
</g>
<g>
	<g>
		<path d="M375.908,152.103v-24.017h-111.73v24.017h-32.195v15.664h176.12v-15.664H375.908z M279.842,152.103v-8.353h80.401v8.353
			H279.842z"/>
	</g>
</g>
<g>
	<g>
		<polygon points="312.211,48.033 312.211,119.908 327.875,119.908 327.875,63.697 368.076,63.697 368.076,48.033 		"/>
	</g>
</g>
<g>
	<g>
		<rect x="272.01" y="400.267" width="24.016" height="15.664"/>
	</g>
</g>
<g>
</g>
<g>
</g>
<g>
</g>
<g>
</g>
<g>
</g>
<g>
</g>
<g>
</g>
<g>
</g>
<g>
</g>
<g>
</g>
<g>
</g>
<g>
</g>
<g>
</g>
<g>
</g>
<g>
</g>
</svg>
